HIERARCHY
ROOT Hips
{
	OFFSET 0.00 0.00 0.00
	CHANNELS 6 Xposition Yposition Zposition Yrotation Xrotation Zrotation
	JOINT Spine
	{
		OFFSET	0.0000	9.2263	1.5771
		CHANNELS 3 Xrotation Yrotation Zrotation
		JOINT Spine1
		{
			OFFSET	0.0000	16.2540	-0.1656
			CHANNELS 3 Xrotation Yrotation Zrotation
			JOINT Spine2
			{
				OFFSET	0.0000	13.6396	-1.2923
				CHANNELS 3 Xrotation Yrotation Zrotation
				JOINT Neck
				{
					OFFSET	0.0000	13.8774	-4.3542
					CHANNELS 3 Xrotation Yrotation Zrotation
					JOINT Neck1
					{
						OFFSET	0.0000	4.3400	0.9269
						CHANNELS 3 Xrotation Yrotation Zrotation
						JOINT Head
						{
							OFFSET	0.0000	4.0266	0.8585
							CHANNELS 3 Xrotation Yrotation Zrotation
							End Site
							{
								OFFSET 0.0000 23.0297 0.1231
							}
						}
					}
				}
				JOINT LeftShoulder
				{
					OFFSET	6.1442	10.1870	-3.7932
					CHANNELS 3 Zrotation Xrotation Yrotation
					JOINT LeftArm
					{
						OFFSET	12.3191	-1.1130	-1.7935
						CHANNELS 3 Zrotation Xrotation Yrotation
						JOINT LeftForeArm
						{
							OFFSET	27.6870	0.0000	0.0000
							CHANNELS 3 Xrotation Zrotation Yrotation
							JOINT LeftHand
							{
								OFFSET	27.8738	0.0000	0.0000
								CHANNELS 3 Zrotation Yrotation Xrotation
								JOINT LeftHandThumb1
								{
									OFFSET	2.3785	-1.0029	2.6209
									CHANNELS 3 Zrotation Xrotation Yrotation
									JOINT LeftHandThumb2
									{
										OFFSET	3.3624	-1.0029	2.8398
										CHANNELS 3 Zrotation Xrotation Yrotation
										JOINT LeftHandThumb3
										{
											OFFSET	4.5018	-1.3445	2.1783
											CHANNELS 3 Zrotation Xrotation Yrotation
											End Site
											{
												OFFSET 2.6000 -1.0000 1.0000
											}
										}
									}
								}
								JOINT LeftHandMiddle1
								{
									OFFSET	10.4639	0.6148	0.4298
									CHANNELS 3 Zrotation Xrotation Yrotation
									JOINT LeftHandMiddle2
									{
										OFFSET	5.7921	0.0000	0.0000
										CHANNELS 3 Zrotation Xrotation Yrotation
										JOINT LeftHandMiddle3
										{
											OFFSET	3.7132	0.0000	0.0000
											CHANNELS 3 Zrotation Xrotation Yrotation
											End Site
											{
												OFFSET 2.3000 0.0000 0.0000
											}
										}
									}
								}
								JOINT LeftHandIndex1
								{
									OFFSET	10.3945	0.6148	2.7055
									CHANNELS 3 Zrotation Xrotation Yrotation
									JOINT LeftHandIndex2
									{
										OFFSET	5.5493	0.0000	0.0000
										CHANNELS 3 Zrotation Xrotation Yrotation
										JOINT LeftHandIndex3
										{
											OFFSET	3.3911	0.0000	0.0000
											CHANNELS 3 Zrotation Xrotation Yrotation
											End Site
											{
												OFFSET 2.5000 0.0000 0.0000
											}
										}
									}
								}
								JOINT LeftHandRing1
								{
									OFFSET	10.3252	0.3211	-1.8755
									CHANNELS 3 Zrotation Xrotation Yrotation
									JOINT LeftHandRing2
									{
										OFFSET	5.4452	0.0000	0.0000
										CHANNELS 3 Zrotation Xrotation Yrotation
										JOINT LeftHandRing3
										{
											OFFSET	3.7132	0.0000	0.0000
											CHANNELS 3 Zrotation Xrotation Yrotation
											End Site
											{
												OFFSET 2.0000 0.0000 0.0000
											}
										}
									}
								}
								JOINT LeftHandPinky1
								{
									OFFSET	10.0130	-0.0783	-3.9671
									CHANNELS 3 Zrotation Xrotation Yrotation
									JOINT LeftHandPinky2
									{
										OFFSET	3.6763	0.0000	0.0000
										CHANNELS 3 Zrotation Xrotation Yrotation
										JOINT LeftHandPinky3
										{
											OFFSET	2.8113	0.0000	0.0000
											CHANNELS 3 Zrotation Xrotation Yrotation
											End Site
											{
												OFFSET 2.9000 0.0000 0.0000
											}
										}
									}
								}
							}
						}
					}
				}
				JOINT RightShoulder
				{
					OFFSET	-6.1402	10.1870	-3.7932
					CHANNELS 3 Zrotation Xrotation Yrotation
					JOINT RightArm
					{
						OFFSET	-12.3231	-1.1130	-1.7935
						CHANNELS 3 Zrotation Xrotation Yrotation
						JOINT RightForeArm
						{
							OFFSET	-27.6870	0.0000	0.0000
							CHANNELS 3 Xrotation Zrotation Yrotation
							JOINT RightHand
							{
								OFFSET	-27.8738	0.0000	0.0000
								CHANNELS 3 Zrotation Yrotation Xrotation
								JOINT RightHandThumb1
								{
									OFFSET	-2.5178	-0.9367	2.5137
									CHANNELS 3 Zrotation Xrotation Yrotation
									JOINT RightHandThumb2
									{
										OFFSET	-3.2638	-1.0870	2.9669
										CHANNELS 3 Zrotation Xrotation Yrotation
										JOINT RightHandThumb3
										{
											OFFSET	-4.4165	-1.3703	2.1350
											CHANNELS 3 Zrotation Xrotation Yrotation
											End Site
											{
												OFFSET -2.6000 -1.0000 1.0000
											}
										}
									}
								}
								JOINT RightHandIndex1
								{
									OFFSET	-10.4665	0.4896	2.7120
									CHANNELS 3 Zrotation Xrotation Yrotation
									JOINT RightHandIndex2
									{
										OFFSET	-5.3768	0.0000	0.0000
										CHANNELS 3 Zrotation Xrotation Yrotation
										JOINT RightHandIndex3
										{
											OFFSET	-3.3855	0.0000	0.0000
											CHANNELS 3 Zrotation Xrotation Yrotation
											End Site
											{
												OFFSET -2.6000 0.0000 0.0000
											}
										}
									}
								}
								JOINT RightHandMiddle1
								{
									OFFSET	-10.7596	0.4896	0.4278
									CHANNELS 3 Zrotation Xrotation Yrotation
									JOINT RightHandMiddle2
									{
										OFFSET	-5.6168	0.0000	0.0000
										CHANNELS 3 Zrotation Xrotation Yrotation
										JOINT RightHandMiddle3
										{
											OFFSET	-3.7364	0.0000	0.0000
											CHANNELS 3 Zrotation Xrotation Yrotation
											End Site
											{
												OFFSET -2.3000 0.0000 0.0000
											}
										}
									}
								}
								JOINT RightHandRing1
								{
									OFFSET	-10.4702	0.3879	-1.9363
									CHANNELS 3 Zrotation Xrotation Yrotation
									JOINT RightHandRing2
									{
										OFFSET	-5.4013	0.0000	0.0000
										CHANNELS 3 Zrotation Xrotation Yrotation
										JOINT RightHandRing3
										{
											OFFSET	-3.3916	0.0000	0.0000
											CHANNELS 3 Zrotation Xrotation Yrotation
											End Site
											{
												OFFSET -2.2000 0.0000 0.0000
											}
										}
									}
								}
								JOINT RightHandPinky1
								{
									OFFSET	-9.9715	-0.1191	-3.9540
									CHANNELS 3 Zrotation Xrotation Yrotation
									JOINT RightHandPinky2
									{
										OFFSET	-3.6528	0.0000	0.0000
										CHANNELS 3 Zrotation Xrotation Yrotation
										JOINT RightHandPinky3
										{
											OFFSET	-2.7820	0.0000	0.0000
											CHANNELS 3 Zrotation Xrotation Yrotation
											End Site
											{
												OFFSET -2.9000 0.0000 0.0000
											}
										}
									}
								}
							}
						}
					}
				}
			}
		}
	}
	JOINT LeftUpLeg
	{
		OFFSET	9.6338	-3.2733	0.0000
		CHANNELS 3 Xrotation Yrotation Zrotation
		JOINT LeftLeg
		{
			OFFSET	0.0000	-41.7300	-1.7300
			CHANNELS 3 Xrotation Yrotation Zrotation
			JOINT LeftFoot
			{
				OFFSET	0.0126	-39.1900	-0.8477
				CHANNELS 3 Xrotation Yrotation Zrotation
				JOINT LeftToeBase
				{
					OFFSET	-0.1833	-12.1931	8.2823
					CHANNELS 3 Xrotation Yrotation Zrotation
					End Site
					{
						OFFSET 0.0000 0.0000 10.1681
					}
				}
			}
		}
	}
	JOINT RightUpLeg
	{
		OFFSET	-9.6338	-3.2733	0.0000
		CHANNELS 3 Xrotation Yrotation Zrotation
		JOINT RightLeg
		{
			OFFSET	0.0000	-41.7300	-1.7300
			CHANNELS 3 Xrotation Yrotation Zrotation
			JOINT RightFoot
			{
				OFFSET	0.0126	-39.1900	-0.8477
				CHANNELS 3 Xrotation Yrotation Zrotation
				JOINT RightToeBase
				{
					OFFSET	-0.1833	-12.1931	8.2823
					CHANNELS 3 Xrotation Yrotation Zrotation
					End Site
					{
						OFFSET 0.0032 0.0000 10.1681
					}
				}
			}
		}
	}
}
MOTION
Frames: 4
Frame Time: 0.0333333
9.2869 89.4988 5.9153 8.1679 2.3403 -4.2659 1.6302 2.8636 -3.3808 3.7082 5.4027 -5.6651 3.7460 5.3617 -5.6762 -2.6218 -3.1666 -7.3072 -0.0000 0.0000 -0.0000 7.5455 -27.4242 12.7902 -5.0196 1.4253 -3.1944 -37.8769 4.6137 -26.1758 0.0000 -0.0000 -118.1343 14.5126 3.8501 4.1550 -10.5032 3.5052 9.0191 -0.2359 -1.3445 -5.2176 2.5448 -0.8745 10.3703 -64.0156 1.5177 -1.5222 -64.9110 -0.5848 0.9195 -38.9699 -0.2259 0.6385 -56.0936 1.4911 -1.5068 -73.4866 -0.7267 0.9734 -47.9135 -0.3348 0.7534 -69.3907 1.5079 0.1586 -58.9727 -0.4920 0.8700 -42.1310 -0.2623 0.6810 -67.7247 1.5160 4.1900 -65.5095 3.1236 -0.7719 -42.9606 -0.2723 0.6919 -12.7318 0.1316 1.2052 41.0037 -19.7836 55.4157 0.0000 -0.0001 88.8139 -25.0782 -3.7936 36.7994 8.2479 -1.8316 -16.7200 1.5106 -0.9211 6.2163 -5.2628 -3.7735 3.0171 49.9226 0.8970 6.8356 37.6535 -0.4759 -1.3956 35.6070 -0.4272 -1.3301 43.6194 0.9071 3.5113 47.4829 -0.7407 -1.6840 39.1129 -0.5120 -1.4412 44.4849 0.9016 0.1183 30.8980 -0.3242 -1.1731 32.9332 -0.3671 -1.2420 51.5521 0.8727 -4.6457 31.0807 -0.3280 -1.1794 31.2453 -0.3314 -1.1850 -35.0517 -3.4084 6.1482 44.1671 -8.7845 10.9522 -15.0183 -15.0538 -12.1546 -1.1400 0.0000 -0.0000 -1.4650 -14.8632 -2.9030 45.4926 -9.9140 -4.2245 -2.0947 -8.7644 16.2068 -15.7775 -0.0000 -0.0000 
9.8638 88.3094 6.1971 6.4804 2.1746 -4.7415 2.5109 3.0154 -3.9133 5.1665 5.6494 -6.3819 5.2189 5.6040 -6.3751 -2.2076 -3.3370 -7.1771 -0.0000 0.0000 -0.0000 4.1905 -28.2842 13.8932 -5.9362 1.9547 -5.0907 -41.9678 3.9898 -12.5098 0.0000 -0.0000 -125.0752 17.4152 -0.7055 0.2303 -10.8231 3.4866 8.9664 -0.2465 -1.3424 -5.1796 2.0477 -0.4830 12.1029 -67.1008 1.5149 -0.5981 -66.9201 -0.6173 0.9340 -41.5033 -0.2549 0.6728 -59.4210 1.5066 -0.3508 -79.4638 -0.8296 0.9981 -51.2812 -0.3802 0.7921 -72.6016 1.4922 0.3585 -61.7269 -0.5344 0.8941 -43.4414 -0.2781 0.6981 -69.7571 1.5097 4.2950 -66.8699 3.1408 -0.6735 -44.6297 -0.2927 0.7132 -8.4738 0.4505 3.2835 42.4705 -20.4848 45.0887 -0.0000 0.0000 113.0789 -23.2519 -3.1358 40.7588 7.7717 -1.9071 -16.5873 1.5106 -0.9211 6.2162 -5.2606 -3.7643 2.9847 50.0937 0.9065 8.7083 34.7922 -0.4084 -1.3036 34.8803 -0.4104 -1.3065 43.5127 0.9103 4.6729 42.0938 -0.5894 -1.5315 38.7732 -0.5035 -1.4307 43.8732 0.9022 0.0344 24.0442 -0.1982 -0.9308 31.4481 -0.3356 -1.1919 51.3445 0.8759 -5.1177 23.6059 -0.1912 -0.9148 30.3754 -0.3136 -1.1552 -36.7709 -4.5769 6.1809 49.5983 -8.7787 10.7845 -17.7369 -12.1390 -11.3512 -1.1885 -0.0000 0.0000 -3.7262 -14.1017 -4.7996 49.8242 -10.0671 -4.8751 -3.0039 -2.3939 14.8797 -16.9163 0.0000 -0.0000 
10.6325 86.9806 6.3909 2.7042 1.8103 -5.2542 3.3136 3.2908 -4.4831 6.4660 6.1478 -7.1457 6.5382 6.0994 -7.1168 -2.0353 -3.5931 -6.5963 -0.0000 0.0000 -0.0000 0.5136 -29.0337 14.7932 -6.7403 2.4680 -6.8045 -47.2622 0.7351 2.2685 -0.0000 -0.0000 -123.0141 17.1327 -4.5777 -2.2015 -10.9159 3.4708 8.9299 -0.2989 -1.3324 -4.9929 1.7418 -0.2423 13.1648 -69.3222 1.5084 0.0765 -69.8675 -0.6658 0.9532 -43.7287 -0.2816 0.7018 -62.1990 1.5139 0.0580 -83.4807 -0.9000 1.0087 -54.7857 -0.4298 0.8294 -76.9063 1.4589 0.5523 -64.5207 -0.5785 0.9165 -44.4062 -0.2900 0.7104 -71.9444 1.4993 4.4131 -68.9227 3.1622 -0.5243 -45.4493 -0.3030 0.7235 -4.9317 0.6441 3.0895 45.2425 -19.3527 39.7212 -0.0000 -0.0000 128.0481 -21.2264 -2.3279 41.0993 8.1603 -1.8665 -16.6567 1.5106 -0.9211 6.2162 -5.2752 -3.8250 3.1977 50.3060 0.9113 9.6512 31.2578 -0.3316 -1.1854 33.9517 -0.3895 -1.2759 43.5697 0.9127 5.3737 36.9256 -0.4583 -1.3725 38.2764 -0.4911 -1.4152 43.5730 0.9026 -0.6119 18.0130 -0.1120 -0.7064 30.3205 -0.3125 -1.1533 51.2250 0.8790 -5.7420 18.8772 -0.1229 -0.7391 29.8495 -0.3031 -1.1371 -38.0468 -4.8190 6.8054 55.1584 -8.7538 10.6713 -20.7342 -8.2774 -10.4582 -1.0891 -0.0000 -0.0000 -6.1475 -13.8733 -7.2191 53.4413 -6.9144 -5.4328 -3.7303 -0.8884 14.0466 -19.2525 0.0000 -0.0000 
11.5455 85.6253 6.4714 -2.5962 1.1755 -5.7592 3.9408 3.4126 -5.0140 7.3872 6.3673 -7.7981 7.4797 6.3186 -7.7443 -2.0678 -3.7227 -5.8407 -0.0000 0.0000 -0.0000 -2.8670 -28.8970 14.7095 -6.4968 2.5267 -7.1881 -52.9803 -5.7746 13.6689 -0.0000 0.0000 -109.2778 11.4883 -9.4420 -3.9065 -10.6972 3.4255 8.8482 -0.3120 -1.3298 -4.9464 1.5292 -0.0751 13.9012 -71.6937 1.4975 0.3857 -73.0963 -0.7201 0.9714 -44.9713 -0.2970 0.7175 -64.7398 1.5161 0.0856 -85.2776 -0.9317 1.0118 -57.1360 -0.4643 0.8528 -80.9245 1.4153 0.7139 -66.3547 -0.6081 0.9300 -44.8595 -0.2956 0.7161 -74.0138 1.4861 4.5022 -70.8846 3.1777 -0.3811 -45.6496 -0.3055 0.7260 -2.9355 0.6449 2.0767 47.3704 -17.2902 39.1226 -0.0000 0.0000 133.1003 -21.1862 -1.0193 39.7945 9.9349 -1.7342 -16.8807 1.5106 -0.9211 6.2162 -5.3018 -3.9362 3.5874 50.5413 0.9101 9.6885 27.5826 -0.2597 -1.0578 32.9240 -0.3669 -1.2417 43.7368 0.9127 5.3972 33.0124 -0.3688 -1.2447 37.8236 -0.4800 -1.4010 43.5584 0.9038 -1.7960 13.7648 -0.0656 -0.5435 29.6204 -0.2985 -1.1291 51.1907 0.8818 -6.3791 16.9249 -0.0989 -0.6650 29.6040 -0.2982 -1.1286 -38.6910 -4.3477 7.8906 60.3618 -8.7816 10.5810 -23.7640 -3.8295 -9.5148 -0.9109 0.0000 -0.0000 -8.5530 -13.7139 -9.6854 56.1931 -3.7133 -6.0368 -4.7842 -0.9738 13.1209 -22.1155 0.0000 -0.0000 
